<mxfile host="app.diagrams.net" modified="2022-11-11T08:52:24.486Z" agent="5.0 (X11; Linux x86_64) AppleWebKit/537.36 (KHTML, like Gecko) Chrome/107.0.0.0 Safari/537.36" etag="iI3L0GWeyHZ4BIRPrF9g" version="20.5.3" type="github">
  <diagram id="8NBGhtvz6tS6cud2ZoqK" name="Page-1">
    <mxGraphModel dx="1221" dy="620" grid="1" gridSize="10" guides="1" tooltips="1" connect="1" arrows="1" fold="1" page="1" pageScale="1" pageWidth="850" pageHeight="1100" math="0" shadow="0">
      <root>
        <mxCell id="0" />
        <mxCell id="1" parent="0" />
        <mxCell id="EfbVyx-5ReEgYv1QKQlY-1" value="hello" style="rounded=0;whiteSpace=wrap;html=1;align=center;verticalAlign=middle;horizontal=1;" vertex="1" parent="1">
          <mxGeometry x="305" y="217" width="120" height="55" as="geometry" />
        </mxCell>
      </root>
    </mxGraphModel>
  </diagram>
</mxfile>
